<?xml version="1.0" encoding="utf-8" standalone="no"?>
<!DOCTYPE svg PUBLIC "-//W3C//DTD SVG 1.1//EN"
  "http://www.w3.org/Graphics/SVG/1.1/DTD/svg11.dtd">
<svg xmlns:xlink="http://www.w3.org/1999/xlink" width="246.7546pt" height="173.35686pt" viewBox="0 0 246.7546 173.35686" xmlns="http://www.w3.org/2000/svg" version="1.1">
 <metadata>
  <rdf:RDF xmlns:dc="http://purl.org/dc/elements/1.1/" xmlns:cc="http://creativecommons.org/ns#" xmlns:rdf="http://www.w3.org/1999/02/22-rdf-syntax-ns#">
   <cc:Work>
    <dc:type rdf:resource="http://purl.org/dc/dcmitype/StillImage"/>
    <dc:date>2026-07-10T02:26:55.118797</dc:date>
    <dc:format>image/svg+xml</dc:format>
    <dc:creator>
     <cc:Agent>
      <dc:title>Matplotlib v3.7.5, https://matplotlib.org/</dc:title>
     </cc:Agent>
    </dc:creator>
   </cc:Work>
  </rdf:RDF>
 </metadata>
 <defs>
  <style type="text/css">*{stroke-linejoin: round; stroke-linecap: butt}</style>
 </defs>
 <g id="figure_1">
  <g id="patch_1">
   <path d="M 0 173.35686 
L 246.7546 173.35686 
L 246.7546 0 
L 0 0 
z
" style="fill: #ffffff"/>
  </g>
  <g id="axes_1">
   <g id="patch_2">
    <path d="M 42.613281 142.072328 
L 243.8746 142.072328 
L 243.8746 6.299297 
L 42.613281 6.299297 
z
" style="fill: #ffffff"/>
   </g>
   <g id="matplotlib.axis_1">
    <g id="xtick_1">
     <g id="line2d_1">
      <path d="M 51.761523 142.072328 
L 51.761523 6.299297 
" clip-path="url(#p5d42f18652)" style="fill: none; stroke: #b0b0b0; stroke-opacity: 0.16; stroke-width: 0.5; stroke-linecap: square"/>
     </g>
     <g id="line2d_2">
      <defs>
       <path id="mdd1dbadfc0" d="M 0 0 
L 0 3 
" style="stroke: #000000; stroke-width: 0.8"/>
      </defs>
      <g>
       <use xlink:href="#mdd1dbadfc0" x="51.761523" y="142.072328" style="stroke: #000000; stroke-width: 0.8"/>
      </g>
     </g>
     <g id="text_1">
      <text style="font: 9px 'Arial', 'Helvetica', 'DejaVu Sans', 'Liberation Sans', sans-serif; text-anchor: middle" x="51.761523" y="155.410922" transform="rotate(-0 51.761523 155.410922)">5</text>
     </g>
    </g>
    <g id="xtick_2">
     <g id="line2d_3">
      <path d="M 112.749801 142.072328 
L 112.749801 6.299297 
" clip-path="url(#p5d42f18652)" style="fill: none; stroke: #b0b0b0; stroke-opacity: 0.16; stroke-width: 0.5; stroke-linecap: square"/>
     </g>
     <g id="line2d_4">
      <g>
       <use xlink:href="#mdd1dbadfc0" x="112.749801" y="142.072328" style="stroke: #000000; stroke-width: 0.8"/>
      </g>
     </g>
     <g id="text_2">
      <text style="font: 9px 'Arial', 'Helvetica', 'DejaVu Sans', 'Liberation Sans', sans-serif; text-anchor: middle" x="112.749801" y="155.410922" transform="rotate(-0 112.749801 155.410922)">10</text>
     </g>
    </g>
    <g id="xtick_3">
     <g id="line2d_5">
      <path d="M 173.73808 142.072328 
L 173.73808 6.299297 
" clip-path="url(#p5d42f18652)" style="fill: none; stroke: #b0b0b0; stroke-opacity: 0.16; stroke-width: 0.5; stroke-linecap: square"/>
     </g>
     <g id="line2d_6">
      <g>
       <use xlink:href="#mdd1dbadfc0" x="173.73808" y="142.072328" style="stroke: #000000; stroke-width: 0.8"/>
      </g>
     </g>
     <g id="text_3">
      <text style="font: 9px 'Arial', 'Helvetica', 'DejaVu Sans', 'Liberation Sans', sans-serif; text-anchor: middle" x="173.73808" y="155.410922" transform="rotate(-0 173.73808 155.410922)">15</text>
     </g>
    </g>
    <g id="xtick_4">
     <g id="line2d_7">
      <path d="M 234.726358 142.072328 
L 234.726358 6.299297 
" clip-path="url(#p5d42f18652)" style="fill: none; stroke: #b0b0b0; stroke-opacity: 0.16; stroke-width: 0.5; stroke-linecap: square"/>
     </g>
     <g id="line2d_8">
      <g>
       <use xlink:href="#mdd1dbadfc0" x="234.726358" y="142.072328" style="stroke: #000000; stroke-width: 0.8"/>
      </g>
     </g>
     <g id="text_4">
      <text style="font: 9px 'Arial', 'Helvetica', 'DejaVu Sans', 'Liberation Sans', sans-serif; text-anchor: middle" x="234.726358" y="155.410922" transform="rotate(-0 234.726358 155.410922)">20</text>
     </g>
    </g>
    <g id="text_5">
     <text style="font: 9.5px 'Arial', 'Helvetica', 'DejaVu Sans', 'Liberation Sans', sans-serif; text-anchor: middle" x="143.243941" y="168.501156" transform="rotate(-0 143.243941 168.501156)">Prediction step</text>
    </g>
   </g>
   <g id="matplotlib.axis_2">
    <g id="ytick_1">
     <g id="line2d_9">
      <path d="M 42.613281 142.072328 
L 243.8746 142.072328 
" clip-path="url(#p5d42f18652)" style="fill: none; stroke: #b0b0b0; stroke-opacity: 0.16; stroke-width: 0.5; stroke-linecap: square"/>
     </g>
     <g id="line2d_10">
      <defs>
       <path id="mf00586800b" d="M 0 0 
L -3 0 
" style="stroke: #000000; stroke-width: 0.8"/>
      </defs>
      <g>
       <use xlink:href="#mf00586800b" x="42.613281" y="142.072328" style="stroke: #000000; stroke-width: 0.8"/>
      </g>
     </g>
     <g id="text_6">
      <text style="font: 9px 'Arial', 'Helvetica', 'DejaVu Sans', 'Liberation Sans', sans-serif; text-anchor: end" x="36.113281" y="145.491625" transform="rotate(-0 36.113281 145.491625)">0.95</text>
     </g>
    </g>
    <g id="ytick_2">
     <g id="line2d_11">
      <path d="M 42.613281 114.917722 
L 243.8746 114.917722 
" clip-path="url(#p5d42f18652)" style="fill: none; stroke: #b0b0b0; stroke-opacity: 0.16; stroke-width: 0.5; stroke-linecap: square"/>
     </g>
     <g id="line2d_12">
      <g>
       <use xlink:href="#mf00586800b" x="42.613281" y="114.917722" style="stroke: #000000; stroke-width: 0.8"/>
      </g>
     </g>
     <g id="text_7">
      <text style="font: 9px 'Arial', 'Helvetica', 'DejaVu Sans', 'Liberation Sans', sans-serif; text-anchor: end" x="36.113281" y="118.337019" transform="rotate(-0 36.113281 118.337019)">0.96</text>
     </g>
    </g>
    <g id="ytick_3">
     <g id="line2d_13">
      <path d="M 42.613281 87.763116 
L 243.8746 87.763116 
" clip-path="url(#p5d42f18652)" style="fill: none; stroke: #b0b0b0; stroke-opacity: 0.16; stroke-width: 0.5; stroke-linecap: square"/>
     </g>
     <g id="line2d_14">
      <g>
       <use xlink:href="#mf00586800b" x="42.613281" y="87.763116" style="stroke: #000000; stroke-width: 0.8"/>
      </g>
     </g>
     <g id="text_8">
      <text style="font: 9px 'Arial', 'Helvetica', 'DejaVu Sans', 'Liberation Sans', sans-serif; text-anchor: end" x="36.113281" y="91.182413" transform="rotate(-0 36.113281 91.182413)">0.97</text>
     </g>
    </g>
    <g id="ytick_4">
     <g id="line2d_15">
      <path d="M 42.613281 60.608509 
L 243.8746 60.608509 
" clip-path="url(#p5d42f18652)" style="fill: none; stroke: #b0b0b0; stroke-opacity: 0.16; stroke-width: 0.5; stroke-linecap: square"/>
     </g>
     <g id="line2d_16">
      <g>
       <use xlink:href="#mf00586800b" x="42.613281" y="60.608509" style="stroke: #000000; stroke-width: 0.8"/>
      </g>
     </g>
     <g id="text_9">
      <text style="font: 9px 'Arial', 'Helvetica', 'DejaVu Sans', 'Liberation Sans', sans-serif; text-anchor: end" x="36.113281" y="64.027806" transform="rotate(-0 36.113281 64.027806)">0.98</text>
     </g>
    </g>
    <g id="ytick_5">
     <g id="line2d_17">
      <path d="M 42.613281 33.453903 
L 243.8746 33.453903 
" clip-path="url(#p5d42f18652)" style="fill: none; stroke: #b0b0b0; stroke-opacity: 0.16; stroke-width: 0.5; stroke-linecap: square"/>
     </g>
     <g id="line2d_18">
      <g>
       <use xlink:href="#mf00586800b" x="42.613281" y="33.453903" style="stroke: #000000; stroke-width: 0.8"/>
      </g>
     </g>
     <g id="text_10">
      <text style="font: 9px 'Arial', 'Helvetica', 'DejaVu Sans', 'Liberation Sans', sans-serif; text-anchor: end" x="36.113281" y="36.8732" transform="rotate(-0 36.113281 36.8732)">0.99</text>
     </g>
    </g>
    <g id="ytick_6">
     <g id="line2d_19">
      <path d="M 42.613281 6.299297 
L 243.8746 6.299297 
" clip-path="url(#p5d42f18652)" style="fill: none; stroke: #b0b0b0; stroke-opacity: 0.16; stroke-width: 0.5; stroke-linecap: square"/>
     </g>
     <g id="line2d_20">
      <g>
       <use xlink:href="#mf00586800b" x="42.613281" y="6.299297" style="stroke: #000000; stroke-width: 0.8"/>
      </g>
     </g>
     <g id="text_11">
      <text style="font: 9px 'Arial', 'Helvetica', 'DejaVu Sans', 'Liberation Sans', sans-serif; text-anchor: end" x="36.113281" y="9.718594" transform="rotate(-0 36.113281 9.718594)">1.00</text>
     </g>
    </g>
    <g id="text_12">
     <text style="font: 9.5px 'Arial', 'Helvetica', 'DejaVu Sans', 'Liberation Sans', sans-serif; text-anchor: middle" x="10.098516" y="74.185813" transform="rotate(-90 10.098516 74.185813)">Normalized achievable rate</text>
    </g>
   </g>
   <g id="line2d_21">
    <path d="M 51.761523 12.001764 
L 112.749801 19.061962 
L 173.73808 29.380712 
L 234.726358 43.501108 
" clip-path="url(#p5d42f18652)" style="fill: none; stroke: #d62728; stroke-width: 1.45; stroke-linecap: square"/>
    <defs>
     <path id="m482ea500fd" d="M -0 3.181981 
L 3.181981 0 
L 0 -3.181981 
L -3.181981 -0 
z
" style="stroke: #d62728; stroke-linejoin: miter"/>
    </defs>
    <g clip-path="url(#p5d42f18652)">
     <use xlink:href="#m482ea500fd" x="51.761523" y="12.001764" style="fill: #d62728; stroke: #d62728; stroke-linejoin: miter"/>
     <use xlink:href="#m482ea500fd" x="112.749801" y="19.061962" style="fill: #d62728; stroke: #d62728; stroke-linejoin: miter"/>
     <use xlink:href="#m482ea500fd" x="173.73808" y="29.380712" style="fill: #d62728; stroke: #d62728; stroke-linejoin: miter"/>
     <use xlink:href="#m482ea500fd" x="234.726358" y="43.501108" style="fill: #d62728; stroke: #d62728; stroke-linejoin: miter"/>
    </g>
   </g>
   <g id="line2d_22">
    <path d="M 51.761523 17.161139 
L 112.749801 23.135153 
L 173.73808 35.897818 
L 234.726358 51.919035 
" clip-path="url(#p5d42f18652)" style="fill: none; stroke: #4c78a8; stroke-width: 1.45; stroke-linecap: square"/>
    <defs>
     <path id="m74148e47ac" d="M 0 2.25 
C 0.596707 2.25 1.169055 2.012926 1.59099 1.59099 
C 2.012926 1.169055 2.25 0.596707 2.25 0 
C 2.25 -0.596707 2.012926 -1.169055 1.59099 -1.59099 
C 1.169055 -2.012926 0.596707 -2.25 0 -2.25 
C -0.596707 -2.25 -1.169055 -2.012926 -1.59099 -1.59099 
C -2.012926 -1.169055 -2.25 -0.596707 -2.25 0 
C -2.25 0.596707 -2.012926 1.169055 -1.59099 1.59099 
C -1.169055 2.012926 -0.596707 2.25 0 2.25 
z
" style="stroke: #4c78a8"/>
    </defs>
    <g clip-path="url(#p5d42f18652)">
     <use xlink:href="#m74148e47ac" x="51.761523" y="17.161139" style="fill: #4c78a8; stroke: #4c78a8"/>
     <use xlink:href="#m74148e47ac" x="112.749801" y="23.135153" style="fill: #4c78a8; stroke: #4c78a8"/>
     <use xlink:href="#m74148e47ac" x="173.73808" y="35.897818" style="fill: #4c78a8; stroke: #4c78a8"/>
     <use xlink:href="#m74148e47ac" x="234.726358" y="51.919035" style="fill: #4c78a8; stroke: #4c78a8"/>
    </g>
   </g>
   <g id="line2d_23">
    <path d="M 51.761523 16.618047 
L 112.749801 23.135153 
L 173.73808 36.169364 
L 234.726358 54.36295 
" clip-path="url(#p5d42f18652)" style="fill: none; stroke: #59a14f; stroke-width: 1.45; stroke-linecap: square"/>
    <defs>
     <path id="m67d1be7230" d="M -2.25 2.25 
L 2.25 2.25 
L 2.25 -2.25 
L -2.25 -2.25 
z
" style="stroke: #59a14f; stroke-linejoin: miter"/>
    </defs>
    <g clip-path="url(#p5d42f18652)">
     <use xlink:href="#m67d1be7230" x="51.761523" y="16.618047" style="fill: #59a14f; stroke: #59a14f; stroke-linejoin: miter"/>
     <use xlink:href="#m67d1be7230" x="112.749801" y="23.135153" style="fill: #59a14f; stroke: #59a14f; stroke-linejoin: miter"/>
     <use xlink:href="#m67d1be7230" x="173.73808" y="36.169364" style="fill: #59a14f; stroke: #59a14f; stroke-linejoin: miter"/>
     <use xlink:href="#m67d1be7230" x="234.726358" y="54.36295" style="fill: #59a14f; stroke: #59a14f; stroke-linejoin: miter"/>
    </g>
   </g>
   <g id="line2d_24">
    <path d="M 51.761523 54.36295 
L 112.749801 61.96624 
L 173.73808 71.741898 
L 234.726358 84.776109 
" clip-path="url(#p5d42f18652)" style="fill: none; stroke: #8e6bbe; stroke-width: 1.45; stroke-linecap: square"/>
    <defs>
     <path id="md3daab4026" d="M 0 -2.25 
L -2.25 2.25 
L 2.25 2.25 
z
" style="stroke: #8e6bbe; stroke-linejoin: miter"/>
    </defs>
    <g clip-path="url(#p5d42f18652)">
     <use xlink:href="#md3daab4026" x="51.761523" y="54.36295" style="fill: #8e6bbe; stroke: #8e6bbe; stroke-linejoin: miter"/>
     <use xlink:href="#md3daab4026" x="112.749801" y="61.96624" style="fill: #8e6bbe; stroke: #8e6bbe; stroke-linejoin: miter"/>
     <use xlink:href="#md3daab4026" x="173.73808" y="71.741898" style="fill: #8e6bbe; stroke: #8e6bbe; stroke-linejoin: miter"/>
     <use xlink:href="#md3daab4026" x="234.726358" y="84.776109" style="fill: #8e6bbe; stroke: #8e6bbe; stroke-linejoin: miter"/>
    </g>
   </g>
   <g id="patch_3">
    <path d="M 42.613281 142.072328 
L 42.613281 6.299297 
" style="fill: none; stroke: #000000; stroke-width: 0.8; stroke-linejoin: miter; stroke-linecap: square"/>
   </g>
   <g id="patch_4">
    <path d="M 42.613281 142.072328 
L 243.8746 142.072328 
" style="fill: none; stroke: #000000; stroke-width: 0.8; stroke-linejoin: miter; stroke-linecap: square"/>
   </g>
   <g id="legend_1">
    <g id="patch_5">
     <path d="M 170.165819 138.172328 
L 239.9746 138.172328 
L 239.9746 94.326578 
L 170.165819 94.326578 
z
" style="fill: #ffffff; opacity: 0.92; stroke: #666666; stroke-linejoin: miter"/>
    </g>
    <g id="line2d_25">
     <path d="M 172.895819 100.25336 
L 179.915819 100.25336 
L 186.935819 100.25336 
" style="fill: none; stroke: #d62728; stroke-width: 1.45; stroke-linecap: square"/>
     <defs>
      <path id="me10937a76e" d="M -0 2.704683 
L 2.704683 0 
L 0 -2.704683 
L -2.704683 -0 
z
" style="stroke: #d62728; stroke-linejoin: miter"/>
     </defs>
     <g>
      <use xlink:href="#me10937a76e" x="179.915819" y="100.25336" style="fill: #d62728; stroke: #d62728; stroke-linejoin: miter"/>
     </g>
    </g>
    <g id="text_13">
     <text style="font: 7.8px 'Arial', 'Helvetica', 'DejaVu Sans', 'Liberation Sans', sans-serif; text-anchor: start" x="190.445819" y="102.98336" transform="rotate(-0 190.445819 102.98336)">Ours</text>
    </g>
    <g id="line2d_26">
     <path d="M 172.895819 110.532297 
L 179.915819 110.532297 
L 186.935819 110.532297 
" style="fill: none; stroke: #4c78a8; stroke-width: 1.45; stroke-linecap: square"/>
     <defs>
      <path id="ma8ad0ca8aa" d="M 0 1.9125 
C 0.507201 1.9125 0.993697 1.710987 1.352342 1.352342 
C 1.710987 0.993697 1.9125 0.507201 1.9125 0 
C 1.9125 -0.507201 1.710987 -0.993697 1.352342 -1.352342 
C 0.993697 -1.710987 0.507201 -1.9125 0 -1.9125 
C -0.507201 -1.9125 -0.993697 -1.710987 -1.352342 -1.352342 
C -1.710987 -0.993697 -1.9125 -0.507201 -1.9125 0 
C -1.9125 0.507201 -1.710987 0.993697 -1.352342 1.352342 
C -0.993697 1.710987 -0.507201 1.9125 0 1.9125 
z
" style="stroke: #4c78a8"/>
     </defs>
     <g>
      <use xlink:href="#ma8ad0ca8aa" x="179.915819" y="110.532297" style="fill: #4c78a8; stroke: #4c78a8"/>
     </g>
    </g>
    <g id="text_14">
     <text style="font: 7.8px 'Arial', 'Helvetica', 'DejaVu Sans', 'Liberation Sans', sans-serif; text-anchor: start" x="190.445819" y="113.262297" transform="rotate(-0 190.445819 113.262297)">LSTM</text>
    </g>
    <g id="line2d_27">
     <path d="M 172.895819 120.811235 
L 179.915819 120.811235 
L 186.935819 120.811235 
" style="fill: none; stroke: #59a14f; stroke-width: 1.45; stroke-linecap: square"/>
     <defs>
      <path id="m5c00bdadf2" d="M -1.9125 1.9125 
L 1.9125 1.9125 
L 1.9125 -1.9125 
L -1.9125 -1.9125 
z
" style="stroke: #59a14f; stroke-linejoin: miter"/>
     </defs>
     <g>
      <use xlink:href="#m5c00bdadf2" x="179.915819" y="120.811235" style="fill: #59a14f; stroke: #59a14f; stroke-linejoin: miter"/>
     </g>
    </g>
    <g id="text_15">
     <text style="font: 7.8px 'Arial', 'Helvetica', 'DejaVu Sans', 'Liberation Sans', sans-serif; text-anchor: start" x="190.445819" y="123.541235" transform="rotate(-0 190.445819 123.541235)">TCN</text>
    </g>
    <g id="line2d_28">
     <path d="M 172.895819 131.090172 
L 179.915819 131.090172 
L 186.935819 131.090172 
" style="fill: none; stroke: #8e6bbe; stroke-width: 1.45; stroke-linecap: square"/>
     <defs>
      <path id="m7616f5ed0e" d="M 0 -1.9125 
L -1.9125 1.9125 
L 1.9125 1.9125 
z
" style="stroke: #8e6bbe; stroke-linejoin: miter"/>
     </defs>
     <g>
      <use xlink:href="#m7616f5ed0e" x="179.915819" y="131.090172" style="fill: #8e6bbe; stroke: #8e6bbe; stroke-linejoin: miter"/>
     </g>
    </g>
    <g id="text_16">
     <text style="font: 7.8px 'Arial', 'Helvetica', 'DejaVu Sans', 'Liberation Sans', sans-serif; text-anchor: start" x="190.445819" y="133.820172" transform="rotate(-0 190.445819 133.820172)">Transformer</text>
    </g>
   </g>
  </g>
 </g>
 <defs>
  <clipPath id="p5d42f18652">
   <rect x="42.613281" y="6.299297" width="201.261319" height="135.773031"/>
  </clipPath>
 </defs>
</svg>
